# xmcd
#
# Track frame offsets: 
#        150
#        16599
#        31843
#        46777
#        59702
#        79631
#        96303
#        119793
#        139813
#        156398
#        172781
#        194062
#
# Disc length: 2846 seconds
#
# Revision: 0
# Processed by: cddbd v1.5.2PL0 Copyright (c) Steve Scherf et al.
# Submitted via: ExactAudioCopyFreeDBPlugin 1.0
#
DISCID=9f0b1c0c
DTITLE=JJ Blues Band - Still Stuck With The Blues
DYEAR=2008
DGENRE=Blues
TTITLE0=JJ Shuffle
TTITLE1=Let's Start All Over Again
TTITLE2=Angel of the Dark
TTITLE3=I Wanna Read Your Mind
TTITLE4=That's What Love Will Make You Do
TTITLE5=Anything That You Say
TTITLE6=The Cotton Creeper
TTITLE7=My Baby Has Gone
TTITLE8=Stuck With the Blues
TTITLE9=Weird Old Woman
TTITLE10=Who's Been Talking
TTITLE11=Story of a Songwriter
EXTD=
EXTT0=
EXTT1=
EXTT2=
EXTT3=
EXTT4=
EXTT5=
EXTT6=
EXTT7=
EXTT8=
EXTT9=
EXTT10=
EXTT11=
PLAYORDER=
